<svg width="39" height="40" viewBox="0 0 39 40" fill="none" xmlns="http://www.w3.org/2000/svg">
<path fill-rule="evenodd" clip-rule="evenodd" d="M27.3494 39.1654H11.482C4.62623 39.1654 0.00390625 34.8126 0.00390625 28.317V11.6995C0.00390625 5.20203 4.62623 0.832031 11.482 0.832031H27.3494C34.2247 0.832031 38.847 5.20203 38.847 11.6995V28.317C38.847 34.8126 34.2247 39.1654 27.3494 39.1654ZM23.8341 18.5612H11.5015C10.6858 18.5612 10.0448 19.2129 10.0448 19.9987C10.0448 20.8037 10.6858 21.4362 11.5015 21.4362H23.8341L19.0176 26.1704C18.7457 26.4387 18.5903 26.822 18.5903 27.1862C18.5903 27.5484 18.7457 27.9145 19.0176 28.202C19.5808 28.7579 20.5131 28.7579 21.0763 28.202L28.3982 21.0145C28.942 20.4779 28.942 19.5195 28.3982 18.9829L21.0763 11.7954C20.5131 11.2395 19.5808 11.2395 19.0176 11.7954C18.4544 12.3704 18.4544 13.2712 19.0176 13.8462L23.8341 18.5612Z" fill="#200E32"/>
</svg>
